<svg xmlns="http://www.w3.org/2000/svg" version="1.1" xmlns:xlink="http://www.w3.org/1999/xlink" xmlns:svgjs="http://svgjs.dev/svgjs" width="1000" height="623" viewBox="0 0 1000 623"><g transform="matrix(1,0,0,1,-0.6060606060606233,0.2522267206477409)"><svg viewBox="0 0 396 247" data-background-color="#ffffff" preserveAspectRatio="xMidYMid meet" height="623" width="1000" xmlns="http://www.w3.org/2000/svg" xmlns:xlink="http://www.w3.org/1999/xlink"><g id="tight-bounds" transform="matrix(1,0,0,1,0.2400000000000091,-0.09999999999999432)"><svg viewBox="0 0 395.52 247.2" height="247.2" width="395.52"><g><svg></svg></g><g><svg viewBox="0 0 395.52 247.2" height="247.2" width="395.52"><g transform="matrix(1,0,0,1,75.54432,64.20867235955056)"><svg viewBox="0 0 244.43135999999998 118.78265528089887" height="118.78265528089887" width="244.43135999999998"><g><svg viewBox="0 0 244.43135999999998 118.78265528089887" height="118.78265528089887" width="244.43135999999998"><g><svg viewBox="0 0 244.43135999999998 118.78265528089887" height="118.78265528089887" width="244.43135999999998"><g><svg viewBox="0 0 244.43135999999998 118.78265528089887" height="118.78265528089887" width="244.43135999999998"><g id="textblocktransform"><svg viewBox="0 0 244.43135999999998 118.78265528089887" height="118.78265528089887" width="244.43135999999998" id="textblock"><g><svg viewBox="0 0 244.43135999999998 118.78265528089887" height="118.78265528089887" width="244.43135999999998"><g transform="matrix(1,0,0,1,0,0)"><svg width="244.43135999999998" viewBox="4.599999904632568 -34.29999923706055 71.20000457763672 34.599998474121094" height="118.78265528089887" data-palette-color="#000000"><path d="M19.2-34.3Q23.75-34.3 26.68-32.15 29.6-30 29.6-26.25L29.6-26.25Q29.6-22.9 27.83-20.55 26.05-18.2 23.45-17.7L23.45-17.7 23.45-17.45Q25.85-16.5 27.4-14.15 28.95-11.8 28.95-8.5L28.95-8.5Q28.95-5.75 29.25-4.35 29.55-2.95 30.05-2.4 30.55-1.85 31.5-1.55L31.5-1.55 31.5-0.15Q30.4 0.3 29.15 0.3L29.15 0.3Q26.75 0.3 25.4-1.13 24.05-2.55 24.05-6.5L24.05-6.5Q24.05-10.55 22.38-12.83 20.7-15.1 18.2-15.1L18.2-15.1 9.5-15.1 9.5 0 4.6 0 4.6-34.3 19.2-34.3ZM19.25-29.85L9.5-29.85 9.5-19.55 19.25-19.55Q21.4-19.55 23.05-21 24.7-22.45 24.7-24.6L24.7-24.6 24.7-24.8Q24.7-27 23.2-28.43 21.7-29.85 19.25-29.85L19.25-29.85ZM68.15-34.3L75.8-34.3 75.8 0 70.9 0 70.9-28.55 70.6-28.55 58.75 0 54.6 0 42.8-28.55 42.55-28.55 42.55 0 38.1 0 38.1-34.3 45.8-34.3 56.85-7.3 57.05-7.3 68.15-34.3Z" opacity="1" transform="matrix(1,0,0,1,0,0)" fill="#000000" class="wordmark-text-0" data-fill-palette-color="primary" id="text-0"></path></svg></g></svg></g></svg></g></svg></g></svg></g></svg></g></svg></g><g><path d="M0 123.6c0-68.262 55.338-123.6 123.6-123.6 40.772 0 76.933 19.742 99.446 50.188h-6.745c-21.659-27.313-55.134-44.832-92.701-44.832-65.304 0-118.244 52.94-118.244 118.244 0 65.304 52.94 118.244 118.244 118.244 37.567 0 71.041-17.519 92.701-44.832l6.745 0c-22.513 30.446-58.674 50.188-99.446 50.188-68.262 0-123.6-55.338-123.6-123.6z" fill="#000000" stroke="transparent" data-fill-palette-color="tertiary"></path></g></svg></g><defs></defs></svg><rect width="395.52" height="247.2" fill="none" stroke="none" visibility="hidden"></rect></g></svg></g></svg>